<mxfile host="app.diagrams.net" modified="2023-12-12T18:07:57.851Z" agent="Mozilla/5.0 (Windows NT 10.0; Win64; x64) AppleWebKit/537.36 (KHTML, like Gecko) Chrome/120.0.0.0 Safari/537.36 Edg/120.0.0.0" etag="pK02v9RHDMi_z4jP3cmn" version="22.1.7" type="github">
  <diagram id="7bYfDr-sznIWWIKafMwo" name="Page-1">
    <mxGraphModel dx="2381" dy="2000" grid="1" gridSize="10" guides="1" tooltips="1" connect="1" arrows="1" fold="1" page="1" pageScale="1" pageWidth="827" pageHeight="1169" math="0" shadow="0">
      <root>
        <mxCell id="0" />
        <mxCell id="1" parent="0" />
        <mxCell id="S7kx4O2pw9i-sN-aWmeE-4" style="edgeStyle=orthogonalEdgeStyle;rounded=0;orthogonalLoop=1;jettySize=auto;html=1;exitX=1;exitY=0.5;exitDx=0;exitDy=0;entryX=0;entryY=0.5;entryDx=0;entryDy=0;" parent="1" source="S7kx4O2pw9i-sN-aWmeE-1" target="S7kx4O2pw9i-sN-aWmeE-3" edge="1">
          <mxGeometry relative="1" as="geometry" />
        </mxCell>
        <mxCell id="S7kx4O2pw9i-sN-aWmeE-5" style="edgeStyle=orthogonalEdgeStyle;rounded=0;orthogonalLoop=1;jettySize=auto;html=1;exitX=0;exitY=0.5;exitDx=0;exitDy=0;entryX=1;entryY=0.5;entryDx=0;entryDy=0;" parent="1" source="S7kx4O2pw9i-sN-aWmeE-1" target="S7kx4O2pw9i-sN-aWmeE-2" edge="1">
          <mxGeometry relative="1" as="geometry" />
        </mxCell>
        <mxCell id="S7kx4O2pw9i-sN-aWmeE-1" value="Курьерский режим" style="rounded=1;whiteSpace=wrap;html=1;" parent="1" vertex="1">
          <mxGeometry x="320" y="270" width="160" height="60" as="geometry" />
        </mxCell>
        <mxCell id="S7kx4O2pw9i-sN-aWmeE-10" style="edgeStyle=none;rounded=0;orthogonalLoop=1;jettySize=auto;html=1;exitX=0;exitY=0.5;exitDx=0;exitDy=0;" parent="1" source="S7kx4O2pw9i-sN-aWmeE-2" edge="1">
          <mxGeometry relative="1" as="geometry">
            <mxPoint x="-40" y="300" as="targetPoint" />
          </mxGeometry>
        </mxCell>
        <mxCell id="S7kx4O2pw9i-sN-aWmeE-11" style="edgeStyle=none;rounded=0;orthogonalLoop=1;jettySize=auto;html=1;exitX=0;exitY=0;exitDx=0;exitDy=0;entryX=1;entryY=0.5;entryDx=0;entryDy=0;" parent="1" source="S7kx4O2pw9i-sN-aWmeE-2" target="n1_C5UjRpqr0U_vv8V_q-9" edge="1">
          <mxGeometry relative="1" as="geometry">
            <mxPoint y="200" as="targetPoint" />
          </mxGeometry>
        </mxCell>
        <mxCell id="S7kx4O2pw9i-sN-aWmeE-12" style="edgeStyle=none;rounded=0;orthogonalLoop=1;jettySize=auto;html=1;exitX=0;exitY=1;exitDx=0;exitDy=0;entryX=1;entryY=0.5;entryDx=0;entryDy=0;" parent="1" source="S7kx4O2pw9i-sN-aWmeE-2" target="n1_C5UjRpqr0U_vv8V_q-11" edge="1">
          <mxGeometry relative="1" as="geometry">
            <mxPoint y="400" as="targetPoint" />
          </mxGeometry>
        </mxCell>
        <mxCell id="S7kx4O2pw9i-sN-aWmeE-2" value="Выключен" style="rounded=1;whiteSpace=wrap;html=1;" parent="1" vertex="1">
          <mxGeometry x="80" y="270" width="160" height="60" as="geometry" />
        </mxCell>
        <mxCell id="S7kx4O2pw9i-sN-aWmeE-6" style="rounded=0;orthogonalLoop=1;jettySize=auto;html=1;exitX=1;exitY=0;exitDx=0;exitDy=0;entryX=0;entryY=0.5;entryDx=0;entryDy=0;" parent="1" source="S7kx4O2pw9i-sN-aWmeE-3" target="S7kx4O2pw9i-sN-aWmeE-9" edge="1">
          <mxGeometry relative="1" as="geometry">
            <mxPoint x="800" y="200" as="targetPoint" />
          </mxGeometry>
        </mxCell>
        <mxCell id="S7kx4O2pw9i-sN-aWmeE-7" style="edgeStyle=none;rounded=0;orthogonalLoop=1;jettySize=auto;html=1;exitX=1;exitY=0;exitDx=0;exitDy=0;entryX=0;entryY=0.5;entryDx=0;entryDy=0;" parent="1" source="S7kx4O2pw9i-sN-aWmeE-3" target="n1_C5UjRpqr0U_vv8V_q-1" edge="1">
          <mxGeometry relative="1" as="geometry">
            <mxPoint x="840" y="300" as="targetPoint" />
          </mxGeometry>
        </mxCell>
        <mxCell id="S7kx4O2pw9i-sN-aWmeE-8" style="edgeStyle=none;rounded=0;orthogonalLoop=1;jettySize=auto;html=1;exitX=1;exitY=1;exitDx=0;exitDy=0;entryX=0;entryY=0.5;entryDx=0;entryDy=0;" parent="1" source="S7kx4O2pw9i-sN-aWmeE-3" target="n1_C5UjRpqr0U_vv8V_q-3" edge="1">
          <mxGeometry relative="1" as="geometry">
            <mxPoint x="800" y="400" as="targetPoint" />
          </mxGeometry>
        </mxCell>
        <mxCell id="S7kx4O2pw9i-sN-aWmeE-3" value="Влючён" style="rounded=1;whiteSpace=wrap;html=1;" parent="1" vertex="1">
          <mxGeometry x="560" y="270" width="160" height="60" as="geometry" />
        </mxCell>
        <mxCell id="S7kx4O2pw9i-sN-aWmeE-13" style="edgeStyle=none;rounded=0;orthogonalLoop=1;jettySize=auto;html=1;exitX=1;exitY=0.5;exitDx=0;exitDy=0;entryX=0;entryY=0.5;entryDx=0;entryDy=0;" parent="1" source="S7kx4O2pw9i-sN-aWmeE-9" target="n1_C5UjRpqr0U_vv8V_q-5" edge="1">
          <mxGeometry relative="1" as="geometry">
            <mxPoint x="1107" y="260" as="targetPoint" />
          </mxGeometry>
        </mxCell>
        <mxCell id="S7kx4O2pw9i-sN-aWmeE-14" style="edgeStyle=none;rounded=0;orthogonalLoop=1;jettySize=auto;html=1;exitX=1;exitY=0;exitDx=0;exitDy=0;entryX=0;entryY=0.5;entryDx=0;entryDy=0;" parent="1" source="S7kx4O2pw9i-sN-aWmeE-9" target="n1_C5UjRpqr0U_vv8V_q-4" edge="1">
          <mxGeometry relative="1" as="geometry">
            <mxPoint x="1067" y="170" as="targetPoint" />
          </mxGeometry>
        </mxCell>
        <mxCell id="S7kx4O2pw9i-sN-aWmeE-15" style="edgeStyle=none;rounded=0;orthogonalLoop=1;jettySize=auto;html=1;exitX=1;exitY=1;exitDx=0;exitDy=0;entryX=0;entryY=0.5;entryDx=0;entryDy=0;" parent="1" source="S7kx4O2pw9i-sN-aWmeE-9" target="n1_C5UjRpqr0U_vv8V_q-6" edge="1">
          <mxGeometry relative="1" as="geometry">
            <mxPoint x="1067" y="330" as="targetPoint" />
          </mxGeometry>
        </mxCell>
        <mxCell id="S7kx4O2pw9i-sN-aWmeE-9" value="Изменяется стоимость аренды транспорта" style="rounded=1;whiteSpace=wrap;html=1;" parent="1" vertex="1">
          <mxGeometry x="827" y="230" width="160" height="60" as="geometry" />
        </mxCell>
        <mxCell id="n1_C5UjRpqr0U_vv8V_q-1" value="Переключатель (чек-бокс) включён (ON)" style="rounded=1;whiteSpace=wrap;html=1;fillColor=#ffe6cc;strokeColor=#d79b00;" parent="1" vertex="1">
          <mxGeometry x="810" y="-30" width="170" height="70" as="geometry" />
        </mxCell>
        <mxCell id="n1_C5UjRpqr0U_vv8V_q-8" style="edgeStyle=orthogonalEdgeStyle;rounded=0;orthogonalLoop=1;jettySize=auto;html=1;entryX=0;entryY=0.5;entryDx=0;entryDy=0;strokeColor=#457B9D;fontColor=#1D3557;fillColor=#A8DADC;" parent="1" source="n1_C5UjRpqr0U_vv8V_q-3" target="n1_C5UjRpqr0U_vv8V_q-7" edge="1">
          <mxGeometry relative="1" as="geometry" />
        </mxCell>
        <mxCell id="n1_C5UjRpqr0U_vv8V_q-3" value="В курьерском режиме при расчёте в доступных режимах добавить к результатам стоимости и времени в пути дополнительную строку:&amp;nbsp;Выгода &amp;lt;Bonus&amp;gt; р" style="rounded=1;whiteSpace=wrap;html=1;" parent="1" vertex="1">
          <mxGeometry x="780" y="540.5" width="180" height="90" as="geometry" />
        </mxCell>
        <mxCell id="n1_C5UjRpqr0U_vv8V_q-4" value="Стоимость самокатов снижена на 3.5 рубля за километр" style="rounded=1;whiteSpace=wrap;html=1;fillColor=#647687;fontColor=#ffffff;strokeColor=#314354;" parent="1" vertex="1">
          <mxGeometry x="1067" y="150" width="160" height="60" as="geometry" />
        </mxCell>
        <mxCell id="n1_C5UjRpqr0U_vv8V_q-5" value="Стоимость велосипедов снижена на 1.5 рубля за километр" style="rounded=1;whiteSpace=wrap;html=1;" parent="1" vertex="1">
          <mxGeometry x="1067" y="230" width="160" height="60" as="geometry" />
        </mxCell>
        <mxCell id="n1_C5UjRpqr0U_vv8V_q-6" value="Компенсация расход на автомобиль 10 рублей за километр для всех режимов поездки: «Быстрый», «Оптимальный» и «Свой»" style="rounded=1;whiteSpace=wrap;html=1;" parent="1" vertex="1">
          <mxGeometry x="1067" y="320" width="160" height="80" as="geometry" />
        </mxCell>
        <mxCell id="hpkC8RtIc5tsJgb5DeNc-1" style="edgeStyle=orthogonalEdgeStyle;rounded=0;orthogonalLoop=1;jettySize=auto;html=1;" parent="1" source="n1_C5UjRpqr0U_vv8V_q-7" edge="1">
          <mxGeometry relative="1" as="geometry">
            <mxPoint x="1280" y="585.5" as="targetPoint" />
          </mxGeometry>
        </mxCell>
        <mxCell id="n1_C5UjRpqr0U_vv8V_q-7" value="&amp;lt;Bonus&amp;gt; = L * (1 + 2L) - L * Cost&lt;br&gt;, где L — длина маршрута, а Cost — стоимость аренды выбранного транспорта за километр" style="rounded=1;whiteSpace=wrap;html=1;fillColor=#647687;fontColor=#ffffff;strokeColor=#314354;" parent="1" vertex="1">
          <mxGeometry x="1020" y="543" width="200" height="85" as="geometry" />
        </mxCell>
        <mxCell id="hpkC8RtIc5tsJgb5DeNc-19" style="edgeStyle=orthogonalEdgeStyle;rounded=0;orthogonalLoop=1;jettySize=auto;html=1;entryX=1;entryY=0.5;entryDx=0;entryDy=0;" parent="1" source="n1_C5UjRpqr0U_vv8V_q-9" target="hpkC8RtIc5tsJgb5DeNc-18" edge="1">
          <mxGeometry relative="1" as="geometry" />
        </mxCell>
        <mxCell id="n1_C5UjRpqr0U_vv8V_q-9" value="Доступны все виды транспорта (свой автомобиль, пешком, такси, велосипед, самокат, каршеринг)" style="rounded=1;whiteSpace=wrap;html=1;" parent="1" vertex="1">
          <mxGeometry x="-190" y="170" width="190" height="70" as="geometry" />
        </mxCell>
        <mxCell id="n1_C5UjRpqr0U_vv8V_q-10" value="Фон переключателя серый с текстом OFF?" style="rounded=1;whiteSpace=wrap;html=1;fillColor=#647687;fontColor=#ffffff;strokeColor=#314354;" parent="1" vertex="1">
          <mxGeometry x="-190" y="265" width="190" height="70" as="geometry" />
        </mxCell>
        <mxCell id="n1_C5UjRpqr0U_vv8V_q-11" value="Текст &quot;Выгода:&quot; - при выключенном режиме выгода НЕ рассчитывается и НЕ отображается." style="rounded=1;whiteSpace=wrap;html=1;fillColor=#ffe6cc;strokeColor=#d79b00;" parent="1" vertex="1">
          <mxGeometry x="-190" y="370" width="190" height="70" as="geometry" />
        </mxCell>
        <mxCell id="hpkC8RtIc5tsJgb5DeNc-2" value="Выгода может быть отрицательной при дорогой стоимости аренды транспорта." style="rounded=1;whiteSpace=wrap;html=1;fillColor=#ffe6cc;strokeColor=#d79b00;" parent="1" vertex="1">
          <mxGeometry x="1280" y="538" width="160" height="90" as="geometry" />
        </mxCell>
        <mxCell id="hpkC8RtIc5tsJgb5DeNc-3" value="Стоимость аренды транспорта рассчитывается без скидок и выгоды." style="rounded=1;whiteSpace=wrap;html=1;fillColor=#ffe6cc;strokeColor=#d79b00;" parent="1" vertex="1">
          <mxGeometry x="-190" y="477.5" width="190" height="70" as="geometry" />
        </mxCell>
        <mxCell id="hpkC8RtIc5tsJgb5DeNc-4" style="edgeStyle=none;rounded=0;orthogonalLoop=1;jettySize=auto;html=1;entryX=1;entryY=0.5;entryDx=0;entryDy=0;" parent="1" edge="1">
          <mxGeometry relative="1" as="geometry">
            <mxPoint y="515" as="targetPoint" />
            <mxPoint x="80" y="330" as="sourcePoint" />
          </mxGeometry>
        </mxCell>
        <mxCell id="hpkC8RtIc5tsJgb5DeNc-15" style="edgeStyle=orthogonalEdgeStyle;rounded=0;orthogonalLoop=1;jettySize=auto;html=1;entryX=0;entryY=0.5;entryDx=0;entryDy=0;" parent="1" source="hpkC8RtIc5tsJgb5DeNc-5" target="hpkC8RtIc5tsJgb5DeNc-14" edge="1">
          <mxGeometry relative="1" as="geometry" />
        </mxCell>
        <mxCell id="hpkC8RtIc5tsJgb5DeNc-5" value="&amp;nbsp;блокируется выбор такси и каршеринга (цвет иконок становится серым, нет возможности выбрать кликом мышки)" style="rounded=1;whiteSpace=wrap;html=1;" parent="1" vertex="1">
          <mxGeometry x="827" y="417.5" width="170" height="70" as="geometry" />
        </mxCell>
        <mxCell id="hpkC8RtIc5tsJgb5DeNc-7" style="edgeStyle=none;rounded=0;orthogonalLoop=1;jettySize=auto;html=1;exitX=1;exitY=0.5;exitDx=0;exitDy=0;entryX=0;entryY=0.5;entryDx=0;entryDy=0;" parent="1" source="S7kx4O2pw9i-sN-aWmeE-3" target="hpkC8RtIc5tsJgb5DeNc-5" edge="1">
          <mxGeometry relative="1" as="geometry">
            <mxPoint x="837" y="365" as="targetPoint" />
            <mxPoint x="730" y="310" as="sourcePoint" />
          </mxGeometry>
        </mxCell>
        <mxCell id="hpkC8RtIc5tsJgb5DeNc-8" value="Фон голубой, овальной формы, цвет текста &quot;ON&quot; белый." style="rounded=1;whiteSpace=wrap;html=1;fillColor=#ffe6cc;strokeColor=#d79b00;" parent="1" vertex="1">
          <mxGeometry x="1067" y="-30" width="170" height="70" as="geometry" />
        </mxCell>
        <mxCell id="hpkC8RtIc5tsJgb5DeNc-9" value="Переключатель белый, круглой формы, находится в крайнем правом положении, окружность соответствует форме поля." style="rounded=1;whiteSpace=wrap;html=1;fillColor=#ffe6cc;strokeColor=#d79b00;" parent="1" vertex="1">
          <mxGeometry x="1067" y="60" width="170" height="70" as="geometry" />
        </mxCell>
        <mxCell id="hpkC8RtIc5tsJgb5DeNc-10" value="Заголовок &quot;Курьерский режим&quot; валидация и формат соответствует заголовку &quot;Время начала поездки&quot;" style="rounded=1;whiteSpace=wrap;html=1;fillColor=#ffe6cc;strokeColor=#d79b00;" parent="1" vertex="1">
          <mxGeometry x="1067" y="-120" width="170" height="70" as="geometry" />
        </mxCell>
        <mxCell id="hpkC8RtIc5tsJgb5DeNc-11" style="edgeStyle=none;rounded=0;orthogonalLoop=1;jettySize=auto;html=1;exitX=1;exitY=0.5;exitDx=0;exitDy=0;entryX=0;entryY=0.5;entryDx=0;entryDy=0;" parent="1" source="n1_C5UjRpqr0U_vv8V_q-1" target="hpkC8RtIc5tsJgb5DeNc-10" edge="1">
          <mxGeometry relative="1" as="geometry">
            <mxPoint x="1010" y="-95" as="targetPoint" />
            <mxPoint x="920" y="170" as="sourcePoint" />
          </mxGeometry>
        </mxCell>
        <mxCell id="hpkC8RtIc5tsJgb5DeNc-12" style="edgeStyle=none;rounded=0;orthogonalLoop=1;jettySize=auto;html=1;entryX=0;entryY=0.5;entryDx=0;entryDy=0;exitX=1;exitY=0.5;exitDx=0;exitDy=0;" parent="1" source="n1_C5UjRpqr0U_vv8V_q-1" target="hpkC8RtIc5tsJgb5DeNc-8" edge="1">
          <mxGeometry relative="1" as="geometry">
            <mxPoint x="1077" y="-75" as="targetPoint" />
            <mxPoint x="990" y="20" as="sourcePoint" />
          </mxGeometry>
        </mxCell>
        <mxCell id="hpkC8RtIc5tsJgb5DeNc-13" style="edgeStyle=none;rounded=0;orthogonalLoop=1;jettySize=auto;html=1;entryX=0;entryY=0.5;entryDx=0;entryDy=0;exitX=1;exitY=0.5;exitDx=0;exitDy=0;" parent="1" source="n1_C5UjRpqr0U_vv8V_q-1" target="hpkC8RtIc5tsJgb5DeNc-9" edge="1">
          <mxGeometry relative="1" as="geometry">
            <mxPoint x="1077" y="15" as="targetPoint" />
            <mxPoint x="990" y="15" as="sourcePoint" />
            <Array as="points">
              <mxPoint x="1030" y="60" />
            </Array>
          </mxGeometry>
        </mxCell>
        <mxCell id="hpkC8RtIc5tsJgb5DeNc-17" style="edgeStyle=orthogonalEdgeStyle;rounded=0;orthogonalLoop=1;jettySize=auto;html=1;entryX=0;entryY=0.5;entryDx=0;entryDy=0;" parent="1" source="hpkC8RtIc5tsJgb5DeNc-14" target="hpkC8RtIc5tsJgb5DeNc-16" edge="1">
          <mxGeometry relative="1" as="geometry" />
        </mxCell>
        <mxCell id="hpkC8RtIc5tsJgb5DeNc-14" value="Доступные виды транспорта: велосипед, самокат, пешком или личный автомобиль." style="rounded=1;whiteSpace=wrap;html=1;fillColor=#ffe6cc;strokeColor=#d79b00;" parent="1" vertex="1">
          <mxGeometry x="1062" y="417.5" width="170" height="70" as="geometry" />
        </mxCell>
        <mxCell id="hpkC8RtIc5tsJgb5DeNc-16" value="Цвет иконок чёрный, есть возможность переключения кликом, выбранный транспорт выделяется серым кругом, значёк перекрашивается в белый цвет." style="rounded=1;whiteSpace=wrap;html=1;fillColor=#ffe6cc;strokeColor=#d79b00;" parent="1" vertex="1">
          <mxGeometry x="1270" y="417.5" width="220" height="70" as="geometry" />
        </mxCell>
        <mxCell id="hpkC8RtIc5tsJgb5DeNc-18" value="Выбранный транспорт выделяется серым кругом, значок перекрашивается в белый цвет." style="rounded=1;whiteSpace=wrap;html=1;" parent="1" vertex="1">
          <mxGeometry x="-420" y="170" width="190" height="70" as="geometry" />
        </mxCell>
        <mxCell id="hpkC8RtIc5tsJgb5DeNc-21" value="Переключатель (чек-бокс) выключен (OFF)" style="rounded=1;whiteSpace=wrap;html=1;fillColor=#ffe6cc;strokeColor=#d79b00;" parent="1" vertex="1">
          <mxGeometry x="-170" y="-20" width="170" height="70" as="geometry" />
        </mxCell>
        <mxCell id="hpkC8RtIc5tsJgb5DeNc-22" style="edgeStyle=none;rounded=0;orthogonalLoop=1;jettySize=auto;html=1;exitX=0;exitY=0;exitDx=0;exitDy=0;entryX=1;entryY=0.5;entryDx=0;entryDy=0;" parent="1" source="S7kx4O2pw9i-sN-aWmeE-2" target="hpkC8RtIc5tsJgb5DeNc-21" edge="1">
          <mxGeometry relative="1" as="geometry">
            <mxPoint x="10" y="215" as="targetPoint" />
            <mxPoint x="90" y="280" as="sourcePoint" />
          </mxGeometry>
        </mxCell>
        <mxCell id="hpkC8RtIc5tsJgb5DeNc-23" value="Фон серый, овальной формы, цвет текста &quot;OFF&quot; белый." style="rounded=1;whiteSpace=wrap;html=1;fillColor=#ffe6cc;strokeColor=#d79b00;" parent="1" vertex="1">
          <mxGeometry x="-390" y="-20" width="170" height="70" as="geometry" />
        </mxCell>
        <mxCell id="hpkC8RtIc5tsJgb5DeNc-24" value="Переключатель белый, круглой формы, находится в крайнем левом положении, окружность соответствует форме поля." style="rounded=1;whiteSpace=wrap;html=1;fillColor=#ffe6cc;strokeColor=#d79b00;" parent="1" vertex="1">
          <mxGeometry x="-390" y="70" width="170" height="70" as="geometry" />
        </mxCell>
        <mxCell id="hpkC8RtIc5tsJgb5DeNc-25" value="Заголовок &quot;Курьерский режим&quot; валидация и формат соответствует заголовку &quot;Время начала поездки&quot;" style="rounded=1;whiteSpace=wrap;html=1;fillColor=#ffe6cc;strokeColor=#d79b00;" parent="1" vertex="1">
          <mxGeometry x="-390" y="-110" width="170" height="70" as="geometry" />
        </mxCell>
        <mxCell id="hpkC8RtIc5tsJgb5DeNc-27" style="edgeStyle=none;rounded=0;orthogonalLoop=1;jettySize=auto;html=1;exitX=0;exitY=0.5;exitDx=0;exitDy=0;entryX=1;entryY=0.5;entryDx=0;entryDy=0;" parent="1" source="hpkC8RtIc5tsJgb5DeNc-21" target="hpkC8RtIc5tsJgb5DeNc-24" edge="1">
          <mxGeometry relative="1" as="geometry">
            <mxPoint x="10" y="25" as="targetPoint" />
            <mxPoint x="90" y="280" as="sourcePoint" />
          </mxGeometry>
        </mxCell>
        <mxCell id="hpkC8RtIc5tsJgb5DeNc-28" style="edgeStyle=none;rounded=0;orthogonalLoop=1;jettySize=auto;html=1;exitX=0;exitY=0.5;exitDx=0;exitDy=0;entryX=1;entryY=0.5;entryDx=0;entryDy=0;" parent="1" source="hpkC8RtIc5tsJgb5DeNc-21" target="hpkC8RtIc5tsJgb5DeNc-23" edge="1">
          <mxGeometry relative="1" as="geometry">
            <mxPoint x="-210" y="115" as="targetPoint" />
            <mxPoint x="-160" y="25" as="sourcePoint" />
          </mxGeometry>
        </mxCell>
        <mxCell id="hpkC8RtIc5tsJgb5DeNc-29" style="edgeStyle=none;rounded=0;orthogonalLoop=1;jettySize=auto;html=1;exitX=0;exitY=0.5;exitDx=0;exitDy=0;entryX=1;entryY=0.5;entryDx=0;entryDy=0;" parent="1" source="hpkC8RtIc5tsJgb5DeNc-21" target="hpkC8RtIc5tsJgb5DeNc-25" edge="1">
          <mxGeometry relative="1" as="geometry">
            <mxPoint x="-200" y="125" as="targetPoint" />
            <mxPoint x="-150" y="35" as="sourcePoint" />
          </mxGeometry>
        </mxCell>
      </root>
    </mxGraphModel>
  </diagram>
</mxfile>
